<svg width="98" height="40" viewBox="0 0 98 40" fill="none" xmlns="http://www.w3.org/2000/svg">
<g opacity="0.8" clip-path="url(#clip0_651_927)">
<path d="M2.72844 30.476V39.5365H0V19.5107H13.3333L13.6937 21.4155C13.6422 21.4155 13.6422 21.4155 13.5907 21.364C13.4878 21.364 13.4363 21.364 13.4363 21.3125C13.2304 21.0037 12.4582 20.6948 11.1712 20.3859C9.83269 20.077 8.08237 19.9226 5.86873 19.9226H2.72844V29.9612H11.4286V30.4245H2.72844V30.476Z" fill="black"/>
<path d="M22.8572 33.8738C22.8572 33.359 22.8572 32.8442 22.8572 32.3294C22.8572 31.7631 22.8057 31.2483 22.8057 30.6821C22.5998 31.1454 22.2394 31.4543 21.7246 31.7631C21.2098 32.0205 20.6435 32.2779 20.0258 32.4839C19.408 32.6898 18.7388 32.8957 18.0695 33.0501C17.4003 33.2561 16.731 33.462 16.1648 33.7709C15.5985 34.0797 15.1352 34.4401 14.7748 34.9034C14.4144 35.3667 14.2085 35.9845 14.2085 36.7052C14.2085 37.5289 14.4144 38.0952 14.8263 38.507C15.2381 38.9189 15.8044 39.1248 16.5251 39.1248C17.2458 39.1248 18.1725 38.9189 19.1506 38.4555C20.1802 37.9922 21.3128 37.323 22.5483 36.4478C22.2394 36.7567 21.8276 37.1171 21.3128 37.5289C20.798 37.9407 20.1802 38.3011 19.511 38.6615C18.8417 39.0218 18.1725 39.3307 17.5032 39.5366C16.7825 39.794 16.1648 39.897 15.5985 39.897C15.1352 39.897 14.6204 39.8455 14.157 39.7425C13.6937 39.6396 13.2304 39.4851 12.8185 39.2277C12.4067 38.9703 12.0978 38.6615 11.8404 38.2496C11.583 37.8378 11.4286 37.2715 11.4286 36.6023C11.4286 36.036 11.583 35.5212 11.8919 35.1093C12.2008 34.6975 12.6126 34.3371 13.1274 34.0283C13.6422 33.7194 14.26 33.462 14.9292 33.2561C15.5985 33.0501 16.2677 32.8442 16.9884 32.6898C17.7092 32.4839 18.3784 32.3294 19.0476 32.175C19.7169 32.0205 20.3346 31.8146 20.8494 31.6087C21.4157 31.4028 21.8276 31.1454 22.1879 30.888C22.4968 30.5791 22.7027 30.2702 22.7542 29.8584C22.6512 29.2406 22.5483 28.6743 22.3424 28.1081C22.1879 27.5418 21.9305 27.0785 21.6216 26.6666C21.3128 26.2548 20.9009 25.9459 20.4376 25.6885C19.9743 25.4311 19.3565 25.3796 18.6873 25.3796C17.6577 25.4311 16.8855 25.5341 16.3707 25.74C15.8559 25.9459 15.4955 26.2033 15.2381 26.5122C14.9807 26.8211 14.9292 27.1299 14.9292 27.4903C14.9292 27.8507 14.9292 28.1595 14.9292 28.4684C14.9292 28.8288 14.8263 29.0862 14.6204 29.2921C14.4144 29.498 14.157 29.5495 13.8482 29.5495C13.5393 29.5495 13.2304 29.4465 12.9215 29.1891C12.6126 28.9317 12.5097 28.6229 12.5097 28.211C12.5097 27.6447 12.7671 27.1299 13.2304 26.7181C13.6937 26.3063 14.3115 25.9459 14.9807 25.6885C15.65 25.4311 16.3707 25.2252 17.0914 25.1222C17.8121 25.0193 18.3784 24.9678 18.8417 24.9678C20.2832 24.9678 21.4672 25.1737 22.3424 25.5855C23.2175 25.9974 23.8868 26.5637 24.3501 27.2329C24.8134 27.9021 25.1223 28.7258 25.2767 29.6525C25.4312 30.5791 25.4826 31.5057 25.4826 32.5353V39.5881H22.9086V33.8738H22.8572Z" fill="black"/>
<path d="M31.1455 38.5067C31.4029 38.8671 31.8147 39.1245 32.381 39.2789C32.9473 39.4334 33.5135 39.5364 34.1828 39.5364C34.8005 39.5364 35.4698 39.4849 36.0875 39.3304C36.7568 39.176 37.3231 38.9701 37.8379 38.7127C38.3527 38.4553 38.816 38.1464 39.1249 37.7345C39.4852 37.3742 39.6397 36.9109 39.6397 36.3961C39.6397 35.7783 39.3823 35.2635 38.816 34.9031C38.2497 34.5428 37.529 34.2339 36.7053 33.9765C35.8816 33.7191 34.955 33.4617 33.9769 33.2558C32.9987 33.0499 32.0721 32.741 31.2484 32.4321C30.4247 32.0717 29.704 31.6599 29.1377 31.0936C28.5715 30.5273 28.3141 29.8066 28.3141 28.9315C28.3141 28.1078 28.52 27.4385 28.9318 26.9237C29.3437 26.4089 29.9099 25.9971 30.5277 25.6882C31.1969 25.3793 31.8662 25.1734 32.6384 25.0705C33.4106 24.9675 34.0798 24.916 34.7491 24.916C35.0579 24.916 35.4698 24.9675 35.9846 25.019C36.4994 25.0705 37.0142 25.2249 37.4775 25.4308C37.9408 25.6367 38.4041 25.8427 38.7645 26.1515C39.1249 26.4604 39.3308 26.8723 39.3308 27.3356C39.3308 27.6445 39.2278 27.9019 38.9704 28.1078C38.713 28.3137 38.4556 28.4167 38.1467 28.4167C37.7349 28.4167 37.4775 28.3137 37.2716 28.1593C37.0657 28.0048 36.9627 27.7989 36.8597 27.5415C36.7568 27.3356 36.7053 27.0782 36.6538 26.8208C36.6023 26.5634 36.5509 26.3575 36.3964 26.203C36.139 25.8941 35.8301 25.6367 35.5213 25.5338C35.1609 25.4308 34.7491 25.3279 34.2857 25.3279C33.7709 25.3279 33.2561 25.3793 32.7413 25.4823C32.1751 25.5853 31.7117 25.7397 31.2484 25.9456C30.7851 26.1515 30.4247 26.4604 30.1673 26.7693C29.8585 27.1297 29.7555 27.5415 29.7555 28.0048C29.7555 28.4681 29.9099 28.88 30.2703 29.1889C30.5792 29.4977 31.0425 29.7551 31.5573 30.0125C32.0721 30.2185 32.6899 30.4244 33.4106 30.5788C34.0798 30.7333 34.8005 30.8877 35.5213 31.0936C36.242 31.2995 36.9627 31.5055 37.6319 31.7114C38.3012 31.9173 38.9189 32.2262 39.4852 32.5351C40 32.8439 40.4633 33.2558 40.7722 33.7191C41.0811 34.1824 41.287 34.8002 41.287 35.4694C41.287 36.2416 41.0811 36.9109 40.6693 37.4771C40.2574 38.0434 39.7426 38.4553 39.0734 38.8156C38.4041 39.176 37.6834 39.4334 36.8597 39.5878C36.0361 39.7423 35.1609 39.8452 34.2857 39.8452C33.9769 39.8452 33.668 39.8452 33.2561 39.7938C32.8443 39.7423 32.4325 39.7423 31.9691 39.6393C31.5058 39.5878 31.094 39.4849 30.6307 39.3304C30.1673 39.2275 29.807 39.073 29.4466 38.8671C29.0863 38.6612 28.8289 38.4553 28.5715 38.1979C28.3655 37.9405 28.2626 37.6316 28.2626 37.2197C28.2626 36.9109 28.3655 36.7049 28.6229 36.499C28.8803 36.2931 29.1377 36.1901 29.4466 36.1901C29.8585 36.1901 30.1159 36.2931 30.3218 36.4475C30.5277 36.602 30.6307 36.8079 30.7336 37.0653C30.7851 37.3227 30.8881 37.5286 30.8881 37.786C30.9395 38.1464 31.0425 38.3523 31.1455 38.5067Z" fill="black"/>
<path d="M43.2432 19.5106L45.8172 18.1206V39.5878H43.2432V19.5106ZM46.1261 26.6663C46.332 26.3574 46.6409 26.1 46.9498 25.8941C47.2587 25.6882 47.619 25.4823 48.0309 25.3793C48.4427 25.2763 48.8031 25.1219 49.2149 25.0704C49.6268 25.0189 49.9871 24.9675 50.399 24.9675C51.583 24.9675 52.5611 25.1219 53.3333 25.3793C54.1055 25.6367 54.7748 26.0485 55.2381 26.5119C55.7529 26.9752 56.1132 27.5415 56.3706 28.1592C56.628 28.777 56.834 29.4462 56.9369 30.1155C57.0399 30.8362 57.0914 31.5054 57.1428 32.2776C57.1428 32.9983 57.1428 33.7191 57.1428 34.3883V39.5878H54.5688V34.1309C54.5688 33.6161 54.5688 33.1013 54.5688 32.4835C54.5688 31.8658 54.5174 31.248 54.4659 30.5788C54.4144 29.9095 54.26 29.2918 54.1055 28.674C53.9511 28.0563 53.6937 27.5415 53.3848 27.0267C53.0759 26.5633 52.6126 26.1515 52.0978 25.8941C51.583 25.5852 50.9138 25.4308 50.0901 25.4308C49.4208 25.4308 48.906 25.4823 48.4427 25.5852C47.9794 25.6882 47.619 25.7911 47.3102 25.8941C47.0013 25.9971 46.7439 26.1515 46.5894 26.3059C46.3835 26.4604 46.2291 26.5633 46.1261 26.6663Z" fill="black"/>
<path d="M62.9767 24.5046V39.5367H60.4027V25.8946L62.9767 24.5046Z" fill="black"/>
<path d="M59.6971 20.0765C59.2914 20.2899 58.2889 20.3847 58.2889 20.3847V20.7639C58.2889 20.7639 59.2914 20.8587 59.6971 21.0721C60.079 21.2854 60.4132 21.5698 60.6518 21.9491C60.9144 22.3283 61.0815 22.755 61.2008 23.2527C61.3201 23.7505 61.3679 24.1795 61.3679 24.1795H61.702C61.702 24.1795 61.8198 23.499 61.8691 23.2527C61.9884 22.755 62.1794 22.3283 62.418 21.9491C62.6567 21.5698 62.967 21.2854 63.3727 21.0721C63.7785 20.8587 64.7809 20.7639 64.7809 20.7639V20.3847C64.7809 20.3847 63.7785 20.2899 63.3727 20.0765C62.9909 19.8632 62.6567 19.5788 62.418 19.1995C62.1555 18.8203 61.9884 18.3936 61.8691 17.8959C61.8143 17.6025 61.702 16.855 61.702 16.855H61.3679C61.3679 16.855 61.2569 17.7063 61.2008 17.8959C61.0815 18.3936 60.8905 18.8203 60.6518 19.1995C60.4132 19.5788 60.1029 19.8632 59.6971 20.0765Z" fill="black"/>
<path d="M66.0729 32.4321C66.0729 31.454 66.2274 30.5273 66.5363 29.6007C66.8451 28.6741 67.3599 27.9019 68.0292 27.1811C68.6984 26.4604 69.5221 25.9456 70.5002 25.5338C71.4783 25.1219 72.6624 24.916 74.0009 24.916C75.3393 24.916 76.5234 25.1219 77.5015 25.5338C78.4796 25.9456 79.3033 26.5119 79.9725 27.2326C80.6418 27.9533 81.1051 28.7255 81.414 29.6522C81.7229 30.5273 81.8773 31.5055 81.8773 32.4321C81.8773 33.4102 81.7229 34.3369 81.414 35.2635C81.1051 36.1901 80.5903 36.9623 79.9211 37.6831C79.2518 38.4038 78.4281 38.9186 77.45 39.3304C76.4719 39.7423 75.2879 39.9482 74.0009 39.9482C72.7139 39.9482 71.4783 39.7423 70.5002 39.3304C69.5221 38.9186 68.6984 38.3523 68.0292 37.6316C67.3599 36.9109 66.8966 36.1387 66.5363 35.212C66.2274 34.3369 66.0729 33.4102 66.0729 32.4321ZM72.6624 25.5338C71.7872 25.5338 71.0665 25.7397 70.5002 26.1515C69.9339 26.5634 69.4706 27.0782 69.1617 27.6959C68.8529 28.3137 68.6984 29.0859 68.5955 29.9096C68.544 30.7333 68.5955 31.6084 68.7499 32.4836C68.9043 33.3587 69.1617 34.1824 69.5736 35.0576C69.9339 35.8813 70.3973 36.602 70.9635 37.2712C71.5298 37.889 72.1476 38.4553 72.8683 38.8156C73.589 39.2275 74.3612 39.4334 75.2364 39.4334C76.1115 39.4334 76.7808 39.2275 77.3471 38.8156C77.9133 38.4038 78.3252 37.889 78.6341 37.2712C78.9429 36.6535 79.0974 35.8813 79.2003 35.0576C79.2518 34.2339 79.2004 33.3587 79.0459 32.4836C78.8915 31.6084 78.5826 30.7847 78.2222 29.9096C77.8619 29.0859 77.3985 28.3652 76.8323 27.6959C76.266 27.0782 75.6482 26.5119 74.9275 26.1515C74.2068 25.7912 73.5375 25.5338 72.6624 25.5338Z" fill="black"/>
<path d="M84.0855 25.8944L86.6595 24.5044V39.5366H84.0855V25.8944ZM86.9169 26.6666C87.1228 26.3577 87.4317 26.1003 87.7406 25.8944C88.0495 25.6884 88.4098 25.4825 88.8217 25.3796C89.2335 25.2766 89.5939 25.1222 90.0057 25.0707C90.4176 25.0192 90.7779 24.9677 91.1898 24.9677C92.3738 24.9677 93.3519 25.1222 94.1241 25.3796C94.8963 25.637 95.5656 26.0488 96.0289 26.5121C96.5437 26.9754 96.904 27.5417 97.1614 28.1595C97.4188 28.7772 97.6248 29.4465 97.7277 30.1157C97.8307 30.8364 97.8822 31.5057 97.9336 32.2779C97.9336 32.9986 97.9336 33.7193 97.9336 34.3886V39.5881H95.3596V34.1312C95.3596 33.6164 95.3596 33.1016 95.3596 32.4838C95.3596 31.866 95.3082 31.2483 95.2567 30.579C95.2052 29.9098 95.0508 29.292 94.8963 28.6743C94.7419 28.0565 94.4845 27.5417 94.1756 27.0269C93.8667 26.5636 93.4034 26.1518 92.8886 25.8944C92.3738 25.5855 91.7046 25.431 90.8809 25.431C90.2116 25.431 89.6968 25.4825 89.2335 25.5855C88.7702 25.6884 88.4098 25.7914 88.1009 25.8944C87.7921 25.9973 87.5347 26.1518 87.3802 26.3062C87.1743 26.4606 87.0199 26.5636 86.9169 26.6666Z" fill="black"/>
<path d="M28.1017 1.08105C30.1609 1.08105 31.9627 1.38993 33.5071 1.95622C35.0515 2.57398 36.3385 3.34618 37.3681 4.3243C38.3977 5.30242 39.17 6.3835 39.6848 7.6705C40.1996 8.90602 40.457 10.193 40.457 11.5315C40.457 12.8185 40.1996 14.1055 39.6848 15.341C39.17 16.5765 38.3977 17.7091 37.3681 18.6872C36.3385 19.6654 35.0515 20.4376 33.5071 21.0553C31.9627 21.6731 30.1609 21.982 28.1017 21.982C26.0425 21.982 24.2407 21.6731 22.6963 21.0553C21.1519 20.4376 19.8649 19.6654 18.8353 18.6872C17.8057 17.7091 17.0335 16.5765 16.5187 15.341C16.0039 14.1055 15.7465 12.8185 15.7465 11.5315C15.7465 10.193 16.0039 8.9575 16.5187 7.6705C17.0335 6.43498 17.8057 5.30242 18.8353 4.3243C19.8649 3.34618 21.1519 2.57398 22.6963 1.95622C24.2407 1.38993 26.0425 1.08105 28.1017 1.08105ZM29.6461 21.3127C31.1905 21.3127 32.529 21.0553 33.6101 20.489C34.6912 19.9228 35.5663 19.202 36.2356 18.2754C36.9048 17.3488 37.3167 16.3191 37.5226 15.1351C37.7285 13.9511 37.7285 12.767 37.5741 11.5315C37.3681 10.296 37.0078 9.11194 36.39 7.9279C35.7723 6.74386 35.0515 5.71426 34.1249 4.78762C33.1983 3.86098 32.1172 3.14026 30.8302 2.57398C29.5432 2.0077 28.1532 1.7503 26.6088 1.7503C25.0129 1.7503 23.6744 2.0077 22.5934 2.57398C21.5123 3.14026 20.6371 3.86098 20.0194 4.78762C19.3501 5.71426 18.9383 6.74386 18.7324 7.9279C18.5264 9.11194 18.5264 10.296 18.6809 11.5315C18.8868 12.767 19.2472 13.9511 19.8134 15.1351C20.3797 16.3191 21.1519 17.3488 22.0786 18.2754C23.0052 19.202 24.1378 19.9228 25.3733 20.489C26.6603 21.0038 28.1017 21.3127 29.6461 21.3127Z" fill="black"/>
<path d="M43.2432 5.92023L45.8172 4.53027V13.076C45.8687 13.9511 46.0231 14.8263 46.2805 15.5985C46.5379 16.3707 46.8983 17.0914 47.4131 17.6577C47.8764 18.224 48.4427 18.7388 49.1634 19.0476C49.8327 19.408 50.6049 19.5624 51.48 19.5624C52.5611 19.5624 53.3848 19.2021 54.054 18.5328C54.7233 17.8636 55.1351 16.9884 55.3925 15.9588C55.6499 14.9292 55.7014 13.7967 55.5984 12.6126C55.4955 11.4286 55.1866 10.296 54.7233 9.26644C54.26 8.23684 53.6422 7.36168 52.87 6.69244C52.0978 6.02319 51.1712 5.66283 50.1416 5.66283C49.7812 5.66283 49.3693 5.71431 49.009 5.86875C48.6486 6.02319 48.2883 6.17763 47.9279 6.38356C47.5675 6.58948 47.2587 6.84688 47.0013 7.10428C46.6924 7.36168 46.4865 7.67056 46.332 7.92796C46.7439 7.0528 47.4131 6.33208 48.2883 5.76579C49.2149 5.19951 50.193 4.94211 51.2226 4.94211C52.5096 4.94211 53.5907 5.14803 54.5174 5.55987C55.444 5.97171 56.1647 6.538 56.7825 7.25872C57.3488 7.97944 57.8121 8.75164 58.0695 9.67828C58.3269 10.6049 58.4813 11.4801 58.4813 12.4582C58.4813 13.4363 58.3269 14.3115 58.0695 15.2381C57.8121 16.1133 57.3488 16.937 56.7825 17.6577C56.2162 18.3784 55.444 18.9447 54.5174 19.3565C53.5907 19.7684 52.5096 20.0258 51.2741 20.0258C49.9356 20.0258 48.8031 19.8198 47.9279 19.4595C47.0527 19.0991 46.3835 18.5843 45.8687 17.9666V26.7697H43.2947V5.92023H43.2432Z" fill="black"/>
<path d="M64.4942 9.8842C64.4942 10.8623 64.6486 11.8404 64.9575 12.87C65.2664 13.8996 65.7297 14.7748 66.296 15.65C66.8622 16.4736 67.583 17.1429 68.4066 17.6577C69.2303 18.1725 70.157 18.4299 71.1351 18.4299C72.0617 18.4299 72.8854 18.224 73.6061 17.8636C74.3268 17.4518 74.9446 16.9884 75.4594 16.4736C75.9742 15.9588 76.3861 15.3926 76.6435 14.8778C76.9523 14.363 77.1068 13.9511 77.1068 13.6937C77.0553 14.363 76.7979 15.0837 76.3861 15.7529C75.9742 16.4222 75.4594 17.0399 74.7902 17.6062C74.1209 18.1725 73.4002 18.5843 72.525 18.9447C71.6499 19.2536 70.7232 19.4595 69.7451 19.4595C68.4066 19.4595 67.2226 19.2536 66.2445 18.8417C65.2664 18.4299 64.4427 17.8636 63.7734 17.1429C63.1042 16.4222 62.6409 15.65 62.2805 14.7233C61.9716 13.8482 61.8172 12.87 61.8172 11.9434C61.8172 10.6564 62.0231 9.57532 62.435 8.64868C62.8468 7.72204 63.4131 6.94984 64.0823 6.33208C64.7516 5.71431 65.5238 5.25099 66.3989 4.99359C67.2741 4.68471 68.1492 4.53027 69.0244 4.53027C69.6936 4.53027 70.3629 4.63323 70.9806 4.83915C71.6499 5.04507 72.2162 5.35395 72.7824 5.76579C73.3487 6.17763 73.8121 6.64096 74.2239 7.15576C74.6357 7.72204 74.9446 8.28832 75.202 8.95756C75.305 9.26644 75.2535 9.52384 75.0991 9.72976C74.9446 9.93568 74.6872 10.0386 74.3268 10.0386H64.4942V9.8842ZM68.5096 4.89063C67.8404 4.89063 67.2741 4.99359 66.7593 5.25099C66.2445 5.50839 65.8326 5.81727 65.5238 6.22912C65.2149 6.64096 64.9575 7.15576 64.7516 7.67056C64.5971 8.23684 64.4942 8.80312 64.4427 9.42088H72.8854C72.7824 9.06052 72.628 8.64868 72.4221 8.13388C72.2162 7.61908 71.9073 7.10428 71.5469 6.64096C71.1866 6.17763 70.7747 5.76579 70.2599 5.40543C69.7451 5.04507 69.1274 4.89063 68.5096 4.89063Z" fill="black"/>
<path d="M78.5046 5.76545L81.0786 4.37549V19.4077H78.5046V5.76545ZM81.3875 6.53765C81.5934 6.22877 81.9023 5.97137 82.2112 5.76545C82.5201 5.55953 82.8804 5.35361 83.2923 5.25065C83.7041 5.09621 84.0645 4.99325 84.4763 4.94177C84.8882 4.89029 85.2485 4.83881 85.6604 4.83881C86.8444 4.83881 87.8225 4.99325 88.5947 5.25065C89.3669 5.50805 90.0362 5.91989 90.4995 6.38321C91.0143 6.84653 91.3747 7.41281 91.6321 8.03057C91.8895 8.64833 92.0954 9.31757 92.1983 9.98681C92.3013 10.7075 92.3528 11.3768 92.4043 12.149C92.4043 12.8697 92.4043 13.5904 92.4043 14.2597V19.4591H89.8302V14.0023C89.8302 13.4875 89.8302 12.9727 89.8302 12.3034C89.8302 11.6857 89.7788 11.0679 89.7273 10.3987C89.6758 9.72941 89.5214 9.11165 89.3669 8.49389C89.2125 7.87613 88.9551 7.36133 88.6462 6.84653C88.3373 6.38321 87.874 5.97137 87.3592 5.66249C86.8444 5.35361 86.1752 5.19917 85.3515 5.19917C84.6822 5.19917 84.1674 5.25065 83.7041 5.35361C83.2408 5.45657 82.8804 5.55953 82.5716 5.66249C82.2627 5.76545 82.0053 5.91989 81.8508 6.07433C81.6449 6.28025 81.4905 6.43469 81.3875 6.53765Z" fill="black"/>
</g>
<defs>
<clipPath id="clip0_651_927">
<rect width="97.6062" height="40" fill="white"/>
</clipPath>
</defs>
</svg>
